<?xml version="1.0" encoding="UTF-8" standalone="no"?>
<!-- Created with Inkscape (http://www.inkscape.org/) -->

<svg
   width="60.074867mm"
   height="48.609356mm"
   viewBox="0 0 60.074867 48.609356"
   version="1.1"
   id="svg1"
   xml:space="preserve"
   inkscape:version="1.4 (86a8ad7, 2024-10-11)"
   sodipodi:docname="all_icon.svg"
   inkscape:export-filename="unmixing_icon.svg"
   inkscape:export-xdpi="96"
   inkscape:export-ydpi="96"
   xmlns:inkscape="http://www.inkscape.org/namespaces/inkscape"
   xmlns:sodipodi="http://sodipodi.sourceforge.net/DTD/sodipodi-0.dtd"
   xmlns="http://www.w3.org/2000/svg"
   xmlns:svg="http://www.w3.org/2000/svg"><sodipodi:namedview
     id="namedview1"
     pagecolor="#ffffff"
     bordercolor="#000000"
     borderopacity="0.25"
     inkscape:showpageshadow="2"
     inkscape:pageopacity="0.0"
     inkscape:pagecheckerboard="0"
     inkscape:deskcolor="#d1d1d1"
     inkscape:document-units="mm"
     inkscape:zoom="1.9326197"
     inkscape:cx="879.37632"
     inkscape:cy="790.89538"
     inkscape:window-width="1920"
     inkscape:window-height="1001"
     inkscape:window-x="-9"
     inkscape:window-y="-9"
     inkscape:window-maximized="1"
     inkscape:current-layer="layer1"
     showguides="true"><inkscape:page
       x="0"
       y="0"
       width="60.074867"
       height="48.609356"
       id="page2"
       margin="0"
       bleed="0" /></sodipodi:namedview><defs
     id="defs1"><inkscape:path-effect
       effect="spiro"
       id="path-effect18"
       is_visible="true"
       lpeversion="1" /><inkscape:path-effect
       effect="spiro"
       id="path-effect17"
       is_visible="true"
       lpeversion="1" /><inkscape:path-effect
       effect="spiro"
       id="path-effect8"
       is_visible="true"
       lpeversion="1" /><linearGradient
       id="swatch589"
       inkscape:swatch="solid"><stop
         style="stop-color:#000000;stop-opacity:1;"
         offset="0"
         id="stop590" /></linearGradient><linearGradient
       id="swatch13"
       inkscape:swatch="solid"><stop
         style="stop-color:#000000;stop-opacity:1;"
         offset="0"
         id="stop13" /></linearGradient><inkscape:path-effect
       effect="spiro"
       id="path-effect8-4"
       is_visible="true"
       lpeversion="1" /><inkscape:path-effect
       effect="spiro"
       id="path-effect17-5"
       is_visible="true"
       lpeversion="1" /><inkscape:path-effect
       effect="spiro"
       id="path-effect17-2"
       is_visible="true"
       lpeversion="1" /><marker
       style="overflow:visible"
       id="ArrowTriangleStylized-9"
       refX="0"
       refY="0"
       orient="auto-start-reverse"
       inkscape:stockid="Stylized triangle arrow"
       markerWidth="0.69999999"
       markerHeight="0.69999999"
       viewBox="0 0 1 1"
       inkscape:isstock="true"
       inkscape:collect="always"
       preserveAspectRatio="xMidYMid"><path
         transform="scale(0.5)"
         style="fill:context-stroke;fill-rule:evenodd;stroke:context-stroke;stroke-width:1pt"
         d="m 6,0 c -3,1 -7,3 -9,5 0,0 0,-4 2,-5 -2,-1 -2,-5 -2,-5 2,2 6,4 9,5 z"
         id="path4-5" /></marker><marker
       style="overflow:visible"
       id="ArrowTriangleStylized-9-3"
       refX="0"
       refY="0"
       orient="auto-start-reverse"
       inkscape:stockid="Stylized triangle arrow"
       markerWidth="0.69999999"
       markerHeight="0.69999999"
       viewBox="0 0 1 1"
       inkscape:isstock="true"
       inkscape:collect="always"
       preserveAspectRatio="xMidYMid"><path
         transform="scale(0.5)"
         style="fill:context-stroke;fill-rule:evenodd;stroke:context-stroke;stroke-width:1pt"
         d="m 6,0 c -3,1 -7,3 -9,5 0,0 0,-4 2,-5 -2,-1 -2,-5 -2,-5 2,2 6,4 9,5 z"
         id="path4-5-4" /></marker><marker
       style="overflow:visible"
       id="ArrowTriangleStylized-9-3-4"
       refX="0"
       refY="0"
       orient="auto-start-reverse"
       inkscape:stockid="Stylized triangle arrow"
       markerWidth="0.69999999"
       markerHeight="0.69999999"
       viewBox="0 0 1 1"
       inkscape:isstock="true"
       inkscape:collect="always"
       preserveAspectRatio="xMidYMid"><path
         transform="scale(0.5)"
         style="fill:context-stroke;fill-rule:evenodd;stroke:context-stroke;stroke-width:1pt"
         d="m 6,0 c -3,1 -7,3 -9,5 0,0 0,-4 2,-5 -2,-1 -2,-5 -2,-5 2,2 6,4 9,5 z"
         id="path4-5-4-2" /></marker></defs><g
     inkscape:label="Calque 1"
     inkscape:groupmode="layer"
     id="layer1"
     transform="translate(-123.80577,-177.08657)"><g
       id="g23"
       transform="matrix(0.65249671,0,0,0.65249671,-55.283436,78.660418)"
       inkscape:export-filename="unmixing_icon.png"
       inkscape:export-xdpi="96"
       inkscape:export-ydpi="96"><path
         id="path3"
         style="opacity:0.704017;fill:#803300;stroke:#000000;stroke-width:0.65976;stroke-linecap:round;stroke-linejoin:round;stroke-dashoffset:3.93486;paint-order:markers stroke fill"
         d="m 331.07303,151.18515 c -4.04337,-0.12276 -6.97639,0.91445 -8.0041,3.0381 -2.34112,4.83775 8.18499,10.38569 4.24578,15.41475 -2.71593,3.46733 -7.95663,2.79539 -11.69104,1.55181 -2.17125,-0.72304 -6.01739,0.3994 -7.33554,2.26777 -2.99065,4.23904 -1.48713,15.93131 8.60926,23.51718 13.15505,9.88398 49.15711,15.83001 49.3089,-6.14506 0.13749,-19.9054 -20.69264,-39.20606 -35.13326,-39.64455 z m -12.81082,25.93381 c 2.55904,6e-5 4.63353,2.07455 4.63359,4.63358 -6e-5,2.55904 -2.07455,4.63355 -4.63359,4.63361 -2.55903,-6e-5 -4.63353,-2.07457 -4.63358,-4.63361 5e-5,-2.55903 2.07455,-4.63352 4.63358,-4.63358 z"
         sodipodi:nodetypes="ssssssssccccc" /><path
         style="opacity:0.780127;fill:#ff2a2a;stroke:none;stroke-width:0.640001;stroke-linecap:round;stroke-linejoin:round;stroke-dashoffset:3.93486;paint-order:markers stroke fill"
         d="m 254.09379,191.52867 c -0.54409,0.0594 -1.04921,0.40273 -1.30467,0.88677 -0.25547,0.48404 -0.25389,1.09479 0.004,1.5775 0.19133,0.35802 0.50387,0.6334 0.81223,0.89741 0.30835,0.26402 0.62538,0.53211 0.83062,0.88234 0.24129,0.41174 0.30713,0.90208 0.3265,1.37892 0.0194,0.47684 -0.002,0.95831 0.0842,1.42761 0.13511,0.73193 0.53926,1.40828 1.10893,1.88729 0.56967,0.47902 1.29935,0.7601 2.04233,0.80434 0.74298,0.0443 1.49576,-0.14587 2.13765,-0.52264 0.64189,-0.37676 1.17201,-0.93703 1.5283,-1.59051 0.35628,-0.65349 0.53965,-1.39788 0.54539,-2.14215 0.006,-0.74428 -0.16457,-1.48741 -0.47776,-2.16261 -0.62637,-1.3504 -1.81773,-2.40141 -3.18843,-2.98201 -1.39394,-0.59045 -2.98153,-0.71257 -4.44938,-0.34226 z"
         id="path7"
         inkscape:path-effect="#path-effect8"
         inkscape:original-d="m 254.09379,191.52867 c -0.0325,0.0337 -1.63207,1.13836 -1.30059,2.46427 0.13208,0.52832 1.27352,1.41043 1.64285,1.77975 0.58139,0.58139 -0.50588,2.34824 0.41071,2.80653 3.86095,1.93048 5.04373,-4.46274 3.69641,-6.70829 -0.856,-1.42666 -3.91312,-2.2192 -4.44938,-0.34226 z"
         transform="matrix(1.1441616,0,0,1.1441616,45.320682,-60.137052)" /><path
         style="opacity:0.79704;fill:#c8ab37;stroke:none;stroke-width:0.640001;stroke-linecap:round;stroke-linejoin:round;stroke-dashoffset:3.93486;paint-order:markers stroke fill"
         d="m 254.09379,191.52867 c -0.35625,0.85921 -0.79226,1.68533 -1.30059,2.46427 -0.35615,0.54575 -0.75107,1.07463 -0.99269,1.67985 -0.12082,0.30262 -0.20186,0.62337 -0.21314,0.94902 -0.0113,0.32564 0.0491,0.65664 0.19807,0.94646 0.13173,0.25637 0.33048,0.47608 0.56436,0.64454 0.23387,0.16847 0.50225,0.28652 0.7812,0.35912 0.55788,0.1452 1.14837,0.1092 1.71576,0.007 0.76084,-0.13666 1.50385,-0.39195 2.16782,-0.78779 0.66397,-0.39584 1.24748,-0.93472 1.66096,-1.58786 0.41347,-0.65314 0.65249,-1.42195 0.64214,-2.19489 -0.0104,-0.77295 -0.27647,-1.54656 -0.77451,-2.13775 -0.5335,-0.63327 -1.32734,-1.04026 -2.15295,-1.10377 -0.8256,-0.0635 -1.67235,0.21728 -2.29643,0.76151 z"
         id="path7-2"
         inkscape:path-effect="#path-effect8-4"
         inkscape:original-d="m 254.09379,191.52867 c -0.0325,0.0337 -1.63207,1.13836 -1.30059,2.46427 0.13208,0.52832 -1.37709,3.20601 -1.00776,3.57533 0.58139,0.58139 2.17813,0.4912 3.06132,1.01095 5.31451,3.12753 5.04373,-4.46274 3.69641,-6.70829 -0.856,-1.42666 -3.91312,-2.2192 -4.44938,-0.34226 z"
         transform="matrix(1.1441616,0,0,1.1441616,31.731096,-31.860798)"
         sodipodi:nodetypes="cssssc" /><path
         style="opacity:1;fill:#d35f8d;stroke:none;stroke-width:0.640001;stroke-linecap:round;stroke-linejoin:round;stroke-dashoffset:3.93486;paint-order:markers stroke fill"
         d="m 259.22769,205.90359 c -0.0818,0.99092 0.13544,2.00457 0.61606,2.87498 0.38185,0.69154 0.93428,1.29724 1.62071,1.68818 0.68644,0.39095 1.5096,0.55726 2.28452,0.40382 0.77491,-0.15343 1.48978,-0.63987 1.86678,-1.33407 0.1885,-0.34709 0.29206,-0.74098 0.29082,-1.13596 -0.001,-0.39498 -0.10812,-0.79014 -0.31286,-1.12791 -0.24458,-0.40349 -0.61655,-0.71271 -0.99888,-0.9892 -0.38233,-0.2765 -0.78455,-0.5304 -1.12313,-0.85901 -0.30336,-0.29443 -0.54871,-0.64218 -0.81981,-0.96656 -0.27109,-0.32438 -0.57766,-0.63271 -0.95994,-0.81319 -0.32193,-0.15199 -0.68942,-0.20577 -1.0414,-0.15242 -0.35198,0.0533 -0.68703,0.21362 -0.94946,0.45418 -0.26243,0.24056 -0.45118,0.56044 -0.53487,0.90646 -0.0837,0.34602 -0.062,0.7168 0.0615,1.0507 z"
         id="path16"
         inkscape:path-effect="#path-effect17"
         inkscape:original-d="m 259.22769,205.90359 c 0.88308,0.70275 0.22113,2.0851 0.61606,2.87498 1.06613,2.13226 6.97372,2.1653 5.74997,-1.50594 -0.3325,-0.9975 -1.3869,-1.26012 -2.12201,-1.84821 -0.60766,-0.48613 -1.26371,-1.2637 -1.77975,-1.77975 -1.30042,-1.30041 -2.46427,1.39691 -2.46427,2.25892 z"
         transform="matrix(1.4291755,0,0,1.4291755,-23.249397,-121.80708)" /><path
         style="opacity:1;fill:#5fd35f;stroke:none;stroke-width:0.640001;stroke-linecap:round;stroke-linejoin:round;stroke-dashoffset:3.93486;paint-order:markers stroke fill"
         d="m 259.22769,207.75179 c 0.52036,1.29215 1.27035,2.51532 2.32736,3.4226 0.83303,0.71502 1.86181,1.22362 2.95314,1.34271 1.09133,0.11908 2.24198,-0.17381 3.07925,-0.88386 0.41863,-0.35502 0.75492,-0.80903 0.9596,-1.31834 0.20467,-0.50932 0.27596,-1.07347 0.19064,-1.61571 -0.0853,-0.54223 -0.32873,-1.06058 -0.70172,-1.4633 -0.37298,-0.40271 -0.8754,-0.68651 -1.41546,-0.78468 -0.50809,-0.0924 -1.02959,-0.0228 -1.54598,-0.0176 -0.25819,0.003 -0.51805,-0.0113 -0.7697,-0.0691 -0.25165,-0.0578 -0.49578,-0.16119 -0.69621,-0.32397 -0.20484,-0.16636 -0.35795,-0.38956 -0.47165,-0.62769 -0.1137,-0.23814 -0.19005,-0.49213 -0.26134,-0.7462 -0.0713,-0.25407 -0.13816,-0.51005 -0.23431,-0.7558 -0.0961,-0.24574 -0.22308,-0.48263 -0.40173,-0.67684 -0.21835,-0.23737 -0.51038,-0.40399 -0.8235,-0.4813 -0.31313,-0.0773 -0.6462,-0.0664 -0.9566,0.0212 -0.6208,0.17523 -1.13229,0.65362 -1.42145,1.23023 -0.28916,0.57661 -0.36969,1.24264 -0.30871,1.88481 0.061,0.64217 0.2574,1.26451 0.49837,1.86287 z"
         id="path16-1"
         inkscape:path-effect="#path-effect17-5"
         inkscape:original-d="m 259.22769,207.75179 c 0.25063,1.1004 1.93243,2.63272 2.32736,3.4226 1.06613,2.13226 6.2892,-1.05194 5.06545,-4.72318 -0.3325,-0.9975 -2.27678,0.17737 -3.01189,-0.41072 -0.60766,-0.48613 0.17747,-3.23203 -1.36903,-2.80653 -1.78724,0.49173 -3.58418,2.00523 -3.01189,4.51783 z"
         transform="matrix(1.0305755,0,0,1.0305755,63.872481,-17.730978)"
         sodipodi:nodetypes="ssssss" /><path
         style="opacity:1;fill:#55ddff;stroke:none;stroke-width:0.640001;stroke-linecap:round;stroke-linejoin:round;stroke-dashoffset:3.93486;paint-order:markers stroke fill"
         d="m 259.22769,205.90359 c -0.18367,0.48432 -0.22443,1.02185 -0.1159,1.52833 0.10853,0.50648 0.36597,0.98011 0.73196,1.34665 0.40495,0.40556 0.93807,0.67632 1.50028,0.78761 0.56221,0.11129 1.15163,0.0657 1.69787,-0.10777 1.09246,-0.34695 1.98148,-1.19151 2.55182,-2.18578 0.28881,-0.50348 0.5068,-1.05693 0.5578,-1.63512 0.051,-0.5782 -0.076,-1.18375 -0.42089,-1.65058 -0.21924,-0.29672 -0.5202,-0.52973 -0.85549,-0.68364 -0.33529,-0.15391 -0.7041,-0.22995 -1.07293,-0.23881 -0.73764,-0.0177 -1.46101,0.22959 -2.11025,0.58019 -0.99052,0.53489 -1.84543,1.31856 -2.46427,2.25892 z"
         id="path16-14"
         inkscape:path-effect="#path-effect17-2"
         inkscape:original-d="m 259.22769,205.90359 c 0.88308,0.70275 0.22113,2.0851 0.61606,2.87498 1.06613,2.13226 6.97372,2.1653 5.74997,-1.50594 -0.3325,-0.9975 0.87202,-2.69761 0.13691,-3.2857 -0.60766,-0.48613 -3.52263,0.17379 -4.03867,-0.34226 -1.30042,-1.30041 -2.46427,1.39691 -2.46427,2.25892 z"
         transform="matrix(0.17214317,1.4187703,-1.4187703,0.17214317,595.79102,-210.56372)"
         sodipodi:nodetypes="cssssc"
         inkscape:transform-center-x="0.29348116"
         inkscape:transform-center-y="-1.7609481" /><path
         style="opacity:0.84778;fill:#5555ff;stroke:none;stroke-width:0.640001;stroke-linecap:round;stroke-linejoin:round;stroke-dashoffset:3.93486;paint-order:markers stroke fill"
         d="m 269.08477,211.65355 c -0.24135,0.34511 -0.57168,0.61679 -0.90351,0.8761 -0.33183,0.2593 -0.67261,0.51376 -0.94469,0.8352 -0.4591,0.5424 -0.6968,1.26338 -0.66647,1.97334 0.0303,0.70996 0.32502,1.40294 0.80337,1.92843 0.37109,0.40765 0.85024,0.71613 1.37513,0.8846 0.52488,0.16848 1.09421,0.19648 1.63297,0.0798 0.53876,-0.11673 1.04558,-0.37795 1.45285,-0.74947 0.40726,-0.37151 0.71388,-0.85241 0.87831,-1.37858 0.1574,-0.50369 0.18471,-1.03881 0.17506,-1.56644 -0.01,-0.52762 -0.055,-1.05491 -0.0382,-1.58235 0.0322,-1.00705 0.29061,-2.01612 0.13692,-3.01189 -0.0647,-0.41887 -0.20703,-0.83495 -0.47545,-1.16294 -0.13421,-0.164 -0.29904,-0.30407 -0.4872,-0.40155 -0.18816,-0.0975 -0.39989,-0.15161 -0.61175,-0.14681 -0.36576,0.008 -0.71294,0.19258 -0.97039,0.45252 -0.25744,0.25994 -0.43297,0.59066 -0.56472,0.93196 -0.26351,0.68261 -0.37293,1.4385 -0.79227,2.03812 z"
         id="path17"
         inkscape:path-effect="#path-effect18"
         inkscape:original-d="m 269.08477,211.65355 c 0.0549,1.1687 -1.32919,1.19229 -1.8482,1.7113 -0.45513,0.45513 -0.0488,3.53032 0.1369,3.90177 0.78287,1.56575 4.57771,1.12094 5.33926,-1.16369 0.2989,-0.89671 0.1369,-2.1785 0.1369,-3.14879 0,-0.31829 0.60658,-2.69876 0.13692,-3.01189 -0.56356,-0.37569 -0.91162,-1.2142 -1.5744,-1.7113 -1.87071,-1.40302 -2.38227,2.2539 -2.32738,3.4226 z"
         sodipodi:nodetypes="zscssssz"
         transform="matrix(1.4291755,0,0,1.4291755,-27.064764,-116.13294)" /><rect
         style="opacity:1;fill:#ff5a80;fill-opacity:1;stroke:none;stroke-width:0.640001;stroke-linecap:round;stroke-linejoin:round;stroke-dashoffset:3.93486;paint-order:markers stroke fill"
         id="rect21"
         width="30.590611"
         height="26.815187"
         x="274.46762"
         y="198.52774" /><path
         style="fill:#ff0000;fill-opacity:1;stroke:#ff0000;stroke-width:4.95045;stroke-linejoin:round;stroke-dasharray:none;stroke-opacity:1;marker-end:url(#ArrowTriangleStylized-9);paint-order:stroke markers fill"
         d="M 289.03388,210.56624 330.8586,173.43973"
         id="path15-3-1"
         sodipodi:nodetypes="cc" /><path
         style="fill:#0000ff;fill-opacity:1;stroke:#0000ff;stroke-width:1.08477;stroke-linejoin:round;stroke-dasharray:none;stroke-opacity:1;marker-end:url(#ArrowTriangleStylized-9-3);paint-order:stroke markers fill"
         d="m 288.92567,210.8642 66.95985,-19.92049"
         id="path15-3-1-3"
         sodipodi:nodetypes="cc" /><path
         style="fill:#0000ff;fill-opacity:1;stroke:#d4aa00;stroke-width:2.23437;stroke-linejoin:round;stroke-dasharray:none;stroke-opacity:1;marker-end:url(#ArrowTriangleStylized-9-3-4);paint-order:stroke markers fill"
         d="m 288.57252,210.50805 30.28713,-16.76938"
         id="path15-3-1-3-9"
         sodipodi:nodetypes="cc" /></g></g><style
     type="text/css"
     id="style1">.st0{fill-rule:evenodd;clip-rule:evenodd;}</style></svg>
